 
<!-- Generator: Adobe Illustrator 27.0.0, SVG Export Plug-In . SVG Version: 6.00 Build 0)  -->
<svg version="1.1" id="Capa_1" xmlns="http://www.w3.org/2000/svg" xmlns:xlink="http://www.w3.org/1999/xlink" x="0px" y="0px"
	 viewBox="0 0 300 102.1" style="enable-background:new 0 0 300 102.1;" xml:space="preserve">
<g>
	<g>
		<path style="fill:#EF1B27;" d="M238.052,78.514l4.338,4.906l-6.042,6.002c-2.879,0.77-5.474-2.149-4.015-4.866L238.052,78.514z"/>
		<path style="fill:#EF1B27;" d="M244.117,86.501l3.257,4.386l-3.808,3.338c-2.129,1.126-4.5-1.793-2.707-3.801L244.117,86.501z"/>
		<g>
			<path style="fill:#EF1B27;" d="M233.552,72.431l3.278,3.924l-4.636,3.73c-1.399,0.791-3.831-0.942-2.828-3.285L233.552,72.431z"
				/>
			<path style="fill:#EC1B27;" d="M288.051,28.012c0.185-0.853-0.132-1.747-0.818-2.288c-2.581-2.04-5.917-3.616-7.778-4.182
				c-1.886-0.472-5.636-2.676-9.762,1.103l-32.816,30.89c-1.384,1.545-1.169,3.378-0.154,4.858c1.939,2.826,6.048,3.073,8.553,0.733
				l10.255-9.588c0.884-0.826,2.26-0.811,3.128,0.031l3.719,3.623c0.151,0.147,0.32,0.28,0.505,0.381
				c2.558,1.402,5.591,1.118,8.908-0.565C280.604,48.496,285.523,39.6,288.051,28.012z"/>
			<path style="fill:#EC1B27;" d="M290.848,30.624c2.849,4.851,4.657,8.646,4.479,14.898c-0.043,1.523-0.361,4.111-1.533,5.749
				c-4.368,7.075-9.173,13.164-14.3,18.524c-1.23,1.098-2.008,1.563-3.568,0.406c-2.911-2.328-6.249-7.032-9.651-12.083
				c0.162-0.522,0.238-0.72,1.623-0.892C281.339,55.481,284.076,47.269,290.848,30.624z"/>
			<path style="fill:#2E3192;" d="M277.508,79.324l-21.734-25.241c-0.488-0.568-1.349-0.621-1.906-0.119l-10.674,9.649
				c-2.262,2.045-5.717,2.359-8.131,0.497c-1.139-0.879-1.889-2.043-2.563-4.129c-1.338-4.136,0.851-6.083,0.851-6.083l18.14-16.189
				c0.586-0.523,0.598-1.435,0.023-1.97c-2.785-2.594-10.509-9.403-16.314-10.878c-0.099-0.025-0.2-0.026-0.3-0.048
				c-10.214-2.277-23.809,19.211-18.658,25.877c0.084,0.109,0.121,0.245,0.205,0.354l35.394,45.595
				c2.003,2.621,6.141-0.541,4.136-3.162l-10.785-13.514c-0.185-0.225-0.457-0.642-0.462-0.934
				c-0.027-1.841,0.634-2.681,2.917-2.275c0.298,0.053,0.57,0.224,0.763,0.457l14.703,17.564c2.174,2.493,5.336-0.263,3.162-2.757
				l-15.41-18.815c-1.007-0.924,1.752-3.926,2.757-3l18.004,22.708c1.947,1.975,5.638-1.664,3.691-3.639l-18.449-22.474
				c-1.061-0.995,1.373-3.59,2.432-2.594l15.641,19.787c0.526,0.666,1.538,0.684,2.078,0.028
				C277.965,82.865,278.379,80.617,277.508,79.324z"/>
		</g>
	</g>
	<g>
		<path style="fill:#E30613;" d="M83.576,3.474h-8.25l-22.85,40.323h8.129l4.732-8.009h28.998l4.449,7.543h8.898L83.576,3.474z
			 M71.488,25.76l7.674-13.292l7.674,13.292H71.488z"/>
		<path style="fill:#E30613;" d="M114.195,3.247h40.04v10.05h-36.886v5.581h28.877c4.641,0.071,8.312,3.114,8.312,8.312v9.161
			c0,4.914-3.619,7.674-7.674,7.674h-36.43v-9.191h34.549c0.753,0,1.364-0.611,1.364-1.364v-4.065c0-0.753-0.611-1.364-1.364-1.364
			h-31.637c-2.548,0.061-2.947-1.123-2.912-2.912V6.441C110.938,4.411,112.239,3.41,114.195,3.247z"/>
		<polygon style="fill:#E30613;" points="164.376,3.464 164.376,18.732 195.84,18.732 195.84,3.464 204.01,3.464 204.01,43.807 
			195.84,43.807 195.84,29.085 164.376,29.085 164.376,43.807 156.125,43.807 156.125,3.464 		"/>
		<g>
			<g>
				<rect x="104.443" y="52.774" style="fill:#2E3192;" width="6.148" height="30.01"/>
				<path style="fill:#2E3192;" d="M102.259,60.985v-8.211H71.441v-10.88h-7.078v10.88H60.52v8.211h3.843v13.588v1.132
					c0,3.909,3.169,7.078,7.078,7.078l0,0h30.818v-8.211H71.441V60.985H102.259z"/>
				<path style="fill:#2E3192;" d="M165.25,60.884v10.737v0.729v0.81c0,3.707,3.005,9.626,6.714,9.626h32.435v-7.28h-31.041v-3.459
					h31.041v-0.02h0.046V52.774h-0.046h-7.26h-26.693C168.263,52.774,165.248,55.687,165.25,60.884z M173.359,60.884h23.781v3.883
					h-23.781V60.884z"/>
				<path style="fill:#2E3192;" d="M121.187,52.37v-0.012h-6.369v30.425h6.369V60.298h14.317v22.486h6.148V60.298h14.56v22.486
					h6.148V60.298v-3.469c0.141-3.287-2.893-4.472-4.772-4.459C157.587,52.37,121.187,52.37,121.187,52.37z"/>
			</g>
		</g>
		<path style="fill:#E30613;" d="M50.493,3.168v11.749H14.094v18.079h36.399v11.04h-34.7c-6.969,0.457-11.459-1.277-11.113-7.28
			V11.64c0.343-5.595,2.906-8.625,8.336-8.336L50.493,3.168z"/>
	</g>
</g>
</svg>
