<?xml version="1.0" encoding="UTF-8"?>
<svg id="Capa_1" data-name="Capa 1" xmlns="http://www.w3.org/2000/svg" viewBox="0 0 352.68 365.3">
  <defs>
    <style>
      .cls-1 {
        fill: #05be50;
        fill-rule: evenodd;
      }
    </style>
  </defs>
  <path class="cls-1" d="M211.99,111.83c.15-.34-.04-.08.34-.52l13.3-13.34c.91-.9,3.87-4.17,4.81-4.46,2.5,2.05,16.86,17.03,20.55,20.5,6.2,5.85,14.8,15.36,20.69,20.64l25.64,25.72c2.88,2.82,7.72,7.87,10.35,10.19l5.2,5.34c-.44,1.36-15.97,16.2-17.09,17.41l-16.99,16.97c-.39.28-.04.09-.4.22-.39.75-.07.29-.7.91l-2.45,2.43c-1.15,1.11-2.04,2.08-3.17,3.19l-12.7,12.73c-2.2,2.31-4.48,4.5-6.5,6.46-8.64,8.41-16.99,17.07-25.58,25.54l-51.13,51.02-29.82-29.28c.38-.64,2.37-2.5,3.21-3.38l23.36-23.35c8.61-8.58,17.95-18.02,26.83-26.73,4.51-4.42,8.44-8.63,13.33-13.33,4.66-4.46,9.34-9.43,13.44-13.45,2.52-2.46,26.36-26.13,26.68-26.87-.33-.69-14.68-14.89-17.27-17.46-1.41-1.39-5.28-5.37-5.96-5.78l-16.84,16.66c-.88.86-4.93,5.18-5.65,5.57-.86-.41-29.37-29.22-29.56-29.57l29.64-29.76c.83-.84,3.49-3.71,4.46-4.23h0ZM152.42,341.57h.01c-1.93-1.93-3.79-3.88-5.71-5.64-2.62-2.39-5.01-5-7.34-7.31l-33.17-33.13c-5.48-5.43-13.13-13.59-18.32-18.36l-10.99-11.02c-1.44-1.45-2.49-2.37-3.71-3.62l-7.32-7.35c-1.2-1.33-2.38-2.33-3.64-3.69l-3.85-3.6c-.37-.85-4.68-4.81-5.36-5.53-1.11-1.18-1.67-1.69-2.7-2.68-.99-.94-1.65-1.79-2.67-2.71l-27.16-27.13c-.78-.77-4.64-4.88-5.57-5.35-.2-.67-4.08-4.21-4.63-4.76-1.62-1.62-2.99-3.16-4.47-5.06-2.18-2.79-5.56-9.02-5.69-13.09-.3-9.33-.53-15.07,5.33-23.02,2.49-3.38,20.28-20.84,23.34-23.85,6.16-6.03,12.12-12.26,18.83-18.83,6.14-5.99,12.91-12.77,18.95-18.97,3.06-3.14,55.75-55.12,56.59-56.8.44-.12-.05.11.4-.19l20.06-20.02c3.65-3.64,11.7-12.23,15.85-14.97,12.32-8.12,28.42-5.57,37.7,3.47,1.12,1.09,19.49,19.83,20.3,20.06.91,1.63,53.76,53.94,54.8,54.99,13.87,13.97,27.28,27.05,41.07,41.1l10.29,10.25c.94.91,2.76,3.08,3.73,3.51.2.58.32.58,1.05,1.23l16.94,17.07c11.12,13.24,6.19,26.31,6.42,28.06l-1.57,3.68c-2.92,6.64-6.42,9.44-11.19,14.27l-4.81,5.04c-.94.45-4.45,4.23-5.32,5.13-2.11,2.18-34.64,34.36-34.98,35.09-1.06.56-12.11,11.94-13.23,13.05-4.71,4.67-8.58,8.45-13.08,13.08-2.35,2.42-4.41,4.33-6.6,6.61-2.27,2.37-4.44,4.27-6.52,6.45l-13.06,13.11c-4.27,4.17-8.71,8.94-13.11,13.05-6.25,5.83-24.98,25.61-31.75,31.68l-20.46,20.43-23.7-23.73h0ZM171.95,103.11c-.53,1.1-3.4,3.64-4.46,4.69l-58.83,58.79c-1.11,1.11-8.35,8.66-9.06,8.81l-.49.94,20.19,20.23c.62.62,2.44,2.51,3.07,2.9,1.03-.49,10.44-10.2,11.32-11.04l11.18-11.1c1.01.4,2.89,2.72,3.78,3.58l7.35,7.33c1.27,1.3,2.44,2.34,3.7,3.64l10.97,11.04c.68.67,3.35,3.1,3.77,3.78-.35,1.03-11.99,12.26-12.94,13.2l-39.36,39.32c-.77-.34-18.77-18.57-21.25-20.99-6.18-6.01-12.47-12.78-18.44-18.49-1.02-.97-2.1-1.65-2.65-2.88-.69-.23-2.16-1.97-2.71-2.53-4.38-4.44-9.1-8.8-13.49-13.4-.88-.92-4.85-4.6-5.32-5.59-.79-.22-1.74-1.51-2.37-2.13-.73-.73-1.53-1.58-2.33-2.32-1.7-1.58-3.14-3.12-4.78-4.76-1.39-1.39-8.77-8.34-9.35-9.51.69-1.24,47.75-47.71,53.62-53.76,4.05-4.18,9-9.05,13.37-13.3,8.66-8.42,18.1-18.47,26.91-26.89,1.83-1.75,12.43-12.86,13.61-13.43.17-.58,12.94-13.14,14.51-14.7,1.46-1.46,13.67-14.01,14.71-14.45.68-.03,18.51,17.96,20.9,20.25.27.26.51.46.75.72.24.27.17.21.3.38.02.02.07.17.08.13.02-.03.06.09.08.14l7.73,7.31c-.26.73-3.27,3.66-3.99,4.33-4.19,3.92-8.43,8.43-12.86,12.81l-12.87,12.81c-1.28,1.2-3.23,3.67-4.32,4.13h0Z"/>
</svg>